<svg xmlns="http://www.w3.org/2000/svg" version="1.1" xmlns:xlink="http://www.w3.org/1999/xlink" xmlns:svgjs="http://svgjs.dev/svgjs" viewBox="0 0 800 800" opacity="1"><defs><linearGradient x1="50%" y1="0%" x2="50%" y2="100%" id="nnneon-grad"><stop stop-color="hsl(205, 69%, 60%)" stop-opacity="1" offset="0%"></stop><stop stop-color="hsl(205, 69%, 80%)" stop-opacity="1" offset="100%"></stop></linearGradient><filter id="nnneon-filter" x="-100%" y="-100%" width="400%" height="400%" filterUnits="objectBoundingBox" primitiveUnits="userSpaceOnUse" color-interpolation-filters="sRGB">
	<feGaussianBlur stdDeviation="21 22" x="0%" y="0%" width="100%" height="100%" in="SourceGraphic" edgeMode="none" result="blur"></feGaussianBlur></filter><filter id="nnneon-filter2" x="-100%" y="-100%" width="400%" height="400%" filterUnits="objectBoundingBox" primitiveUnits="userSpaceOnUse" color-interpolation-filters="sRGB">
	<feGaussianBlur stdDeviation="46 45" x="0%" y="0%" width="100%" height="100%" in="SourceGraphic" edgeMode="none" result="blur"></feGaussianBlur></filter></defs><g stroke-width="29" stroke="url(#nnneon-grad)" fill="none" transform="rotate(270, 400, 400)"><path d="M392.2177507072021 296.3187066413735C395.4060211582007 289.8761775710006 404.5940053391557 289.8761775710006 407.78227579015424 296.3187066413735L506.5882704830419 495.97980230829165C509.4439952960414 501.75029397967955 505.2450639504452 508.51321297282436 498.80687620693914 508.51321297282436H301.1931502904172C294.7549625469111 508.51321297282436 290.55603120131497 501.75029397967955 293.4117560143145 495.97980230829165L392.2177507072021 296.3187066413735Z " filter="url(#nnneon-filter)"></path><path d="M446.2177507072021 296.3187066413735C449.4060211582007 289.8761775710006 458.5940053391557 289.8761775710006 461.78227579015424 296.3187066413735L560.5882704830419 495.97980230829165C563.4439952960414 501.75029397967955 559.2450639504452 508.51321297282436 552.8068762069391 508.51321297282436H355.1931502904172C348.7549625469111 508.51321297282436 344.55603120131497 501.75029397967955 347.4117560143145 495.97980230829165L446.2177507072021 296.3187066413735Z " filter="url(#nnneon-filter2)" opacity="0.44"></path><path d="M338.2177507072021 296.3187066413735C341.4060211582007 289.8761775710006 350.5940053391557 289.8761775710006 353.78227579015424 296.3187066413735L452.5882704830419 495.97980230829165C455.4439952960414 501.75029397967955 451.2450639504452 508.51321297282436 444.80687620693914 508.51321297282436H247.19315029041718C240.7549625469111 508.51321297282436 236.55603120131497 501.75029397967955 239.4117560143145 495.97980230829165L338.2177507072021 296.3187066413735Z " filter="url(#nnneon-filter2)" opacity="0.44"></path><path d="M392.2177507072021 296.3187066413735C395.4060211582007 289.8761775710006 404.5940053391557 289.8761775710006 407.78227579015424 296.3187066413735L506.5882704830419 495.97980230829165C509.4439952960414 501.75029397967955 505.2450639504452 508.51321297282436 498.80687620693914 508.51321297282436H301.1931502904172C294.7549625469111 508.51321297282436 290.55603120131497 501.75029397967955 293.4117560143145 495.97980230829165L392.2177507072021 296.3187066413735Z "></path></g></svg>